Metropolis-BlackItalic.ufo
<glyph name="ampersand" format="2">
	<advance width="733"/>
	<unicode hex="0026"/>
	<outline>
		<contour>
			<point x="243" y="-12" type="curve"/>
			<point x="243" y="-12" type="line"/>
			<point x="412" y="-12"/>
			<point x="549" y="101"/>
			<point x="697" y="300" type="curve"/>
			<point x="573" y="379" type="line"/>
			<point x="496" y="256"/>
			<point x="367" y="129"/>
			<point x="275" y="129" type="curve"/>
			<point x="244" y="129"/>
			<point x="221" y="145"/>
			<point x="221" y="175" type="curve"/>
			<point x="221" y="240"/>
			<point x="286" y="277"/>
			<point x="363" y="304" type="curve"/>
			<point x="522" y="373"/>
			<point x="623" y="416"/>
			<point x="623" y="537" type="curve"/>
			<point x="623" y="631"/>
			<point x="549" y="696"/>
			<point x="433" y="696" type="curve"/>
			<point x="311" y="696"/>
			<point x="196" y="604"/>
			<point x="196" y="476" type="curve"/>
			<point x="196" y="432"/>
			<point x="217" y="399"/>
			<point x="254" y="334" type="curve"/>
			<point x="293" y="265"/>
			<point x="372" y="150"/>
			<point x="488" y="-17" type="curve"/>
			<point x="645" y="40" type="line"/>
			<point x="509" y="224"/>
			<point x="432" y="325"/>
			<point x="391" y="391" type="curve"/>
			<point x="364" y="435"/>
			<point x="353" y="457"/>
			<point x="353" y="483" type="curve"/>
			<point x="353" y="525"/>
			<point x="396" y="567"/>
			<point x="435" y="567" type="curve"/>
			<point x="455" y="567"/>
			<point x="467" y="556"/>
			<point x="467" y="538" type="curve"/>
			<point x="467" y="467"/>
			<point x="389" y="447"/>
			<point x="287" y="416" type="curve"/>
			<point x="132" y="361"/>
			<point x="30" y="305"/>
			<point x="30" y="158" type="curve"/>
			<point x="30" y="51"/>
			<point x="115" y="-12"/>
		</contour>
	</outline>
</glyph>
<glyph name="slash" format="2">
	<advance width="546"/>
	<unicode hex="002F"/>
	<outline>
		<contour>
			<point x="442" y="743" type="line"/>
			<point x="-68" y="-74" type="line"/>
			<point x="136" y="-74" type="line"/>
			<point x="646" y="743" type="line"/>
		</contour>
	</outline>
</glyph>
<glyph name="five" format="2">
	<advance width="661"/>
	<unicode hex="0035"/>
	<outline>
		<contour>
			<point x="277" y="-13" type="curve"/>
			<point x="277" y="-13" type="line"/>
			<point x="465" y="-13"/>
			<point x="612" y="97"/>
			<point x="612" y="274" type="curve"/>
			<point x="612" y="389"/>
			<point x="526" y="454"/>
			<point x="415" y="454" type="curve"/>
			<point x="370" y="454"/>
			<point x="327" y="443"/>
			<point x="290" y="420" type="curve"/>
			<point x="318" y="514" type="line"/>
			<point x="629" y="514" type="line"/>
			<point x="665" y="687" type="line"/>
			<point x="176" y="687" type="line"/>
			<point x="87" y="304" type="line"/>
			<point x="208" y="251" type="line"/>
			<point x="246" y="277"/>
			<point x="291" y="296"/>
			<point x="345" y="296" type="curve"/>
			<point x="393" y="296"/>
			<point x="419" y="281"/>
			<point x="419" y="253" type="curve"/>
			<point x="419" y="199"/>
			<point x="356" y="154"/>
			<point x="287" y="154" type="curve"/>
			<point x="234" y="154"/>
			<point x="180" y="178"/>
			<point x="138" y="221" type="curve"/>
			<point x="8" y="95" type="line"/>
			<point x="67" y="31"/>
			<point x="150" y="-13"/>
		</contour>
	</outline>
</glyph>
<glyph name="at" format="2">
	<advance width="900"/>
	<unicode hex="0040"/>
	<outline>
		<contour>
			<point x="360" y="-116" type="curve"/>
			<point x="360" y="-116" type="line"/>
			<point x="441" y="-116"/>
			<point x="527" y="-92"/>
			<point x="612" y="-47" type="curve"/>
			<point x="597" y="-14" type="line"/>
			<point x="521" y="-54"/>
			<point x="444" y="-75"/>
			<point x="372" y="-75" type="curve"/>
			<point x="213" y="-75"/>
			<point x="93" y="37"/>
			<point x="93" y="186" type="curve"/>
			<point x="93" y="442"/>
			<point x="290" y="634"/>
			<point x="553" y="634" type="curve"/>
			<point x="710" y="634"/>
			<point x="827" y="532"/>
			<point x="827" y="397" type="curve"/>
			<point x="827" y="300"/>
			<point x="770" y="163"/>
			<point x="685" y="163" type="curve"/>
			<point x="660" y="163"/>
			<point x="647" y="176"/>
			<point x="647" y="198" type="curve"/>
			<point x="647" y="233"/>
			<point x="686" y="312"/>
			<point x="755" y="484" type="curve"/>
			<point x="602" y="496" type="line"/>
			<point x="580" y="444" type="line"/>
			<point x="563" y="481"/>
			<point x="526" y="509"/>
			<point x="465" y="509" type="curve"/>
			<point x="329" y="509"/>
			<point x="190" y="356"/>
			<point x="190" y="210" type="curve"/>
			<point x="190" y="127"/>
			<point x="239" y="73"/>
			<point x="326" y="73" type="curve"/>
			<point x="379" y="73"/>
			<point x="433" y="99"/>
			<point x="479" y="146" type="curve"/>
			<point x="489" y="102"/>
			<point x="521" y="71"/>
			<point x="593" y="71" type="curve"/>
			<point x="746" y="71"/>
			<point x="873" y="236"/>
			<point x="873" y="400" type="curve"/>
			<point x="873" y="558"/>
			<point x="741" y="676"/>
			<point x="564" y="676" type="curve"/>
			<point x="270" y="676"/>
			<point x="49" y="463"/>
			<point x="49" y="179" type="curve"/>
			<point x="49" y="10"/>
			<point x="182" y="-116"/>
		</contour>
		<contour>
			<point x="411" y="202" type="curve"/>
			<point x="411" y="202" type="line"/>
			<point x="377" y="202"/>
			<point x="356" y="221"/>
			<point x="356" y="254" type="curve"/>
			<point x="356" y="313"/>
			<point x="413" y="380"/>
			<point x="478" y="380" type="curve"/>
			<point x="509" y="380"/>
			<point x="527" y="361"/>
			<point x="527" y="331" type="curve"/>
			<point x="527" y="275"/>
			<point x="472" y="202"/>
		</contour>
	</outline>
</glyph>
<glyph name="J" format="2">
	<advance width="548"/>
	<unicode hex="004A"/>
	<outline>
		<contour>
			<point x="201" y="-12" type="curve"/>
			<point x="201" y="-12" type="line"/>
			<point x="341" y="-12"/>
			<point x="457" y="78"/>
			<point x="485" y="216" type="curve"/>
			<point x="583" y="687" type="line"/>
			<point x="389" y="687" type="line"/>
			<point x="299" y="252" type="line" smooth="yes"/>
			<point x="289" y="205"/>
			<point x="240" y="164"/>
			<point x="187" y="164" type="curve"/>
			<point x="158" y="164"/>
			<point x="127" y="182"/>
			<point x="116" y="217" type="curve"/>
			<point x="-27" y="108" type="line"/>
			<point x="10" y="41"/>
			<point x="102" y="-12"/>
		</contour>
	</outline>
</glyph>
<glyph name="K" format="2">
	<advance width="744"/>
	<unicode hex="004B"/>
	<anchor x="330" y="0" name="bottom"/>
	<outline>
		<contour>
			<point x="155" y="687" type="line"/>
			<point x="12" y="0" type="line"/>
			<point x="206" y="0" type="line"/>
			<point x="247" y="182" type="line"/>
			<point x="336" y="260" type="line"/>
			<point x="457" y="0" type="line"/>
			<point x="678" y="0" type="line"/>
			<point x="491" y="395" type="line"/>
			<point x="812" y="687" type="line"/>
			<point x="565" y="687" type="line"/>
			<point x="297" y="444" type="line"/>
			<point x="349" y="687" type="line"/>
		</contour>
	</outline>
</glyph>
<glyph name="O" format="2">
	<advance width="806"/>
	<unicode hex="004F"/>
	<anchor x="487" y="687" name="top"/>
	<outline>
		<contour>
			<point x="359" y="-12" type="curve"/>
			<point x="359" y="-12" type="line"/>
			<point x="603" y="-12"/>
			<point x="802" y="173"/>
			<point x="802" y="399" type="curve"/>
			<point x="802" y="570"/>
			<point x="665" y="699"/>
			<point x="482" y="699" type="curve"/>
			<point x="239" y="699"/>
			<point x="40" y="515"/>
			<point x="40" y="289" type="curve"/>
			<point x="40" y="117"/>
			<point x="177" y="-12"/>
		</contour>
		<contour>
			<point x="371" y="164" type="curve"/>
			<point x="371" y="164" type="line"/>
			<point x="296" y="164"/>
			<point x="240" y="220"/>
			<point x="240" y="295" type="curve"/>
			<point x="240" y="420"/>
			<point x="344" y="523"/>
			<point x="471" y="523" type="curve"/>
			<point x="546" y="523"/>
			<point x="602" y="467"/>
			<point x="602" y="392" type="curve"/>
			<point x="602" y="267"/>
			<point x="498" y="164"/>
		</contour>
	</outline>
</glyph>
<glyph name="asciicircum" format="2">
	<advance width="506"/>
	<unicode hex="005E"/>
	<outline>
		<contour>
			<point x="278" y="687" type="line"/>
			<point x="78" y="413" type="line"/>
			<point x="212" y="413" type="line"/>
			<point x="324" y="573" type="line"/>
			<point x="367" y="413" type="line"/>
			<point x="492" y="413" type="line"/>
			<point x="407" y="687" type="line"/>
		</contour>
	</outline>
</glyph>
<glyph name="a" format="2">
	<advance width="673"/>
	<unicode hex="0061"/>
	<anchor x="395" y="517" name="top"/>
	<anchor x="564" y="0" name="bottom"/>
	<outline>
		<contour>
			<point x="216" y="-12" type="curve"/>
			<point x="216" y="-12" type="line"/>
			<point x="380" y="-12"/>
			<point x="498" y="148"/>
			<point x="498" y="319" type="curve"/>
			<point x="498" y="444"/>
			<point x="423" y="529"/>
			<point x="304" y="529" type="curve"/>
			<point x="138" y="529"/>
			<point x="18" y="369"/>
			<point x="18" y="200" type="curve"/>
			<point x="18" y="74"/>
			<point x="94" y="-12"/>
		</contour>
		<contour>
			<point x="286" y="148" type="curve"/>
			<point x="286" y="148" type="line"/>
			<point x="233" y="148"/>
			<point x="202" y="176"/>
			<point x="202" y="221" type="curve"/>
			<point x="202" y="298"/>
			<point x="273" y="369"/>
			<point x="357" y="369" type="curve"/>
			<point x="403" y="369"/>
			<point x="431" y="342"/>
			<point x="431" y="298" type="curve"/>
			<point x="431" y="226"/>
			<point x="366" y="148"/>
		</contour>
		<contour>
			<point x="479" y="517" type="line"/>
			<point x="371" y="0" type="line"/>
			<point x="564" y="0" type="line"/>
			<point x="672" y="517" type="line"/>
		</contour>
	</outline>
</glyph>
<glyph name="e" format="2">
	<advance width="539"/>
	<unicode hex="0065"/>
	<anchor x="343" y="517" name="top"/>
	<anchor x="258" y="-12" name="bottom"/>
	<outline>
		<contour>
			<point x="258" y="-12" type="curve"/>
			<point x="258" y="-12" type="line"/>
			<point x="331" y="-12"/>
			<point x="423" y="16"/>
			<point x="479" y="63" type="curve"/>
			<point x="386" y="180" type="line"/>
			<point x="348" y="153"/>
			<point x="301" y="132"/>
			<point x="255" y="132" type="curve"/>
			<point x="208" y="132"/>
			<point x="180" y="163"/>
			<point x="180" y="213" type="curve"/>
			<point x="180" y="295"/>
			<point x="248" y="385"/>
			<point x="333" y="385" type="curve"/>
			<point x="363" y="385"/>
			<point x="385" y="374"/>
			<point x="385" y="359" type="curve"/>
			<point x="384" y="331"/>
			<point x="354" y="314"/>
			<point x="305" y="314" type="curve"/>
			<point x="87" y="314" type="line"/>
			<point x="66" y="213" type="line"/>
			<point x="284" y="213" type="line"/>
			<point x="445" y="207"/>
			<point x="540" y="272"/>
			<point x="540" y="388" type="curve"/>
			<point x="540" y="471"/>
			<point x="456" y="529"/>
			<point x="338" y="529" type="curve"/>
			<point x="158" y="529"/>
			<point x="18" y="387"/>
			<point x="18" y="210" type="curve"/>
			<point x="18" y="78"/>
			<point x="110" y="-12"/>
		</contour>
	</outline>
</glyph>
<glyph name="n" format="2">
	<advance width="626"/>
	<unicode hex="006E"/>
	<anchor x="372" y="517" name="top"/>
	<anchor x="267" y="0" name="bottom"/>
	<outline>
		<contour>
			<point x="110" y="517" type="line"/>
			<point x="2" y="0" type="line"/>
			<point x="195" y="0" type="line"/>
			<point x="303" y="517" type="line"/>
		</contour>
		<contour>
			<point x="344" y="0" type="curve"/>
			<point x="344" y="0" type="line"/>
			<point x="528" y="0" type="line"/>
			<point x="592" y="305"/>
			<point x="600" y="331"/>
			<point x="600" y="369" type="curve"/>
			<point x="600" y="462"/>
			<point x="537" y="529"/>
			<point x="436" y="529" type="curve"/>
			<point x="343" y="529"/>
			<point x="264" y="475"/>
			<point x="241" y="387" type="curve"/>
			<point x="253" y="282" type="line"/>
			<point x="261" y="328"/>
			<point x="306" y="369"/>
			<point x="356" y="369" type="curve"/>
			<point x="388" y="369"/>
			<point x="408" y="351"/>
			<point x="408" y="317" type="curve"/>
			<point x="408" y="302"/>
			<point x="405" y="289"/>
		</contour>
	</outline>
</glyph>
<glyph name="braceleft" format="2">
	<advance width="436"/>
	<unicode hex="007B"/>
	<outline>
		<contour>
			<point x="296" y="-166" type="curve"/>
			<point x="296" y="-166" type="line"/>
			<point x="323" y="-54" type="line"/>
			<point x="245" y="-44"/>
			<point x="220" y="-37"/>
			<point x="220" y="-1" type="curve"/>
			<point x="220" y="34"/>
			<point x="252" y="131"/>
			<point x="252" y="175" type="curve"/>
			<point x="252" y="218"/>
			<point x="230" y="249"/>
			<point x="194" y="261" type="curve"/>
			<point x="257" y="281"/>
			<point x="284" y="313"/>
			<point x="296" y="370" type="curve"/>
			<point x="318" y="485" type="line" smooth="yes"/>
			<point x="332" y="548"/>
			<point x="363" y="571"/>
			<point x="467" y="583" type="curve"/>
			<point x="462" y="698" type="line"/>
			<point x="280" y="686"/>
			<point x="203" y="637"/>
			<point x="178" y="516" type="curve"/>
			<point x="158" y="410" type="line" smooth="yes"/>
			<point x="146" y="353"/>
			<point x="107" y="321"/>
			<point x="39" y="321" type="curve"/>
			<point x="29" y="211" type="line"/>
			<point x="83" y="211"/>
			<point x="104" y="200"/>
			<point x="104" y="166" type="curve"/>
			<point x="104" y="126"/>
			<point x="72" y="36"/>
			<point x="72" y="-15" type="curve"/>
			<point x="72" y="-106"/>
			<point x="141" y="-156"/>
		</contour>
	</outline>
</glyph>
<glyph name="braceright" format="2">
	<advance width="436"/>
	<unicode hex="007D"/>
	<outline>
		<contour>
			<point x="-29" y="-52" type="curve"/>
			<point x="-24" y="-166" type="line"/>
			<point x="160" y="-154"/>
			<point x="236" y="-105"/>
			<point x="261" y="15" type="curve"/>
			<point x="281" y="122" type="line" smooth="yes"/>
			<point x="293" y="179"/>
			<point x="334" y="211"/>
			<point x="400" y="211" type="curve"/>
			<point x="410" y="321" type="line"/>
			<point x="355" y="321"/>
			<point x="334" y="331"/>
			<point x="334" y="365" type="curve"/>
			<point x="334" y="395"/>
			<point x="367" y="502"/>
			<point x="367" y="546" type="curve"/>
			<point x="367" y="637"/>
			<point x="297" y="687"/>
			<point x="142" y="697" type="curve"/>
			<point x="116" y="585" type="line"/>
			<point x="195" y="575"/>
			<point x="219" y="568"/>
			<point x="219" y="533" type="curve"/>
			<point x="219" y="501"/>
			<point x="187" y="395"/>
			<point x="187" y="357" type="curve"/>
			<point x="187" y="314"/>
			<point x="209" y="283"/>
			<point x="245" y="271" type="curve"/>
			<point x="182" y="251"/>
			<point x="155" y="219"/>
			<point x="143" y="161" type="curve"/>
			<point x="120" y="47" type="line" smooth="yes"/>
			<point x="107" y="-17"/>
			<point x="73" y="-40"/>
		</contour>
	</outline>
</glyph>
<glyph name="cent" format="2">
	<advance width="627"/>
	<unicode hex="00A2"/>
	<anchor x="383" y="517" name="top"/>
	<anchor x="290" y="0" name="bottom"/>
	<outline>
		<contour>
			<point x="365" y="589" type="line"/>
			<point x="227" y="-74" type="line"/>
			<point x="337" y="-74" type="line"/>
			<point x="475" y="589" type="line"/>
		</contour>
		<contour>
			<point x="307" y="-12" type="curve"/>
			<point x="307" y="-12" type="line"/>
			<point x="397" y="-12"/>
			<point x="475" y="21"/>
			<point x="539" y="81" type="curve"/>
			<point x="426" y="195" type="line"/>
			<point x="402" y="171"/>
			<point x="357" y="148"/>
			<point x="318" y="148" type="curve"/>
			<point x="272" y="148"/>
			<point x="240" y="181"/>
			<point x="240" y="225" type="curve"/>
			<point x="240" y="293"/>
			<point x="313" y="369"/>
			<point x="388" y="369" type="curve"/>
			<point x="414" y="369"/>
			<point x="447" y="358"/>
			<point x="462" y="335" type="curve"/>
			<point x="602" y="427" type="line"/>
			<point x="562" y="485"/>
			<point x="496" y="529"/>
			<point x="398" y="529" type="curve"/>
			<point x="231" y="529"/>
			<point x="59" y="391"/>
			<point x="59" y="222" type="curve"/>
			<point x="59" y="91"/>
			<point x="163" y="-12"/>
		</contour>
	</outline>
</glyph>
<glyph name="registered" format="2">
	<advance width="603"/>
	<unicode hex="00AE"/>
	<outline>
		<contour>
			<point x="287" y="184" type="curve"/>
			<point x="287" y="184" type="line"/>
			<point x="440" y="184"/>
			<point x="589" y="327"/>
			<point x="589" y="479" type="curve"/>
			<point x="589" y="591"/>
			<point x="507" y="675"/>
			<point x="389" y="675" type="curve"/>
			<point x="234" y="675"/>
			<point x="86" y="534"/>
			<point x="86" y="381" type="curve"/>
			<point x="86" y="269"/>
			<point x="168" y="184"/>
		</contour>
		<contour>
			<point x="296" y="226" type="curve"/>
			<point x="296" y="226" type="line"/>
			<point x="197" y="226"/>
			<point x="129" y="296"/>
			<point x="129" y="389" type="curve"/>
			<point x="129" y="516"/>
			<point x="252" y="633"/>
			<point x="380" y="633" type="curve"/>
			<point x="479" y="633"/>
			<point x="546" y="563"/>
			<point x="546" y="471" type="curve"/>
			<point x="546" y="343"/>
			<point x="424" y="226"/>
		</contour>
		<contour>
			<point x="277" y="398" type="line"/>
			<point x="336" y="280" type="line"/>
			<point x="442" y="280" type="line"/>
			<point x="384" y="398" type="line"/>
		</contour>
		<contour>
			<point x="353" y="458" type="curve"/>
			<point x="305" y="458" type="line"/>
			<point x="312" y="494" type="line"/>
			<point x="360" y="494" type="line" smooth="yes"/>
			<point x="373" y="494"/>
			<point x="380" y="488"/>
			<point x="380" y="479" type="curve"/>
			<point x="380" y="466"/>
			<point x="367" y="458"/>
		</contour>
		<contour>
			<point x="235" y="580" type="line"/>
			<point x="173" y="280" type="line"/>
			<point x="268" y="280" type="line"/>
			<point x="287" y="371" type="line"/>
			<point x="335" y="371" type="line" smooth="yes"/>
			<point x="409" y="371"/>
			<point x="479" y="425"/>
			<point x="479" y="496" type="curve"/>
			<point x="479" y="546"/>
			<point x="438" y="580"/>
			<point x="378" y="580" type="curve"/>
		</contour>
	</outline>
</glyph>
<glyph name="degree" format="2">
	<advance width="425"/>
	<unicode hex="00B0"/>
	<outline>
		<contour>
			<point x="253" y="393" type="curve"/>
			<point x="253" y="393" type="line"/>
			<point x="354" y="393"/>
			<point x="428" y="467"/>
			<point x="428" y="569" type="curve"/>
			<point x="428" y="644"/>
			<point x="370" y="699"/>
			<point x="291" y="699" type="curve"/>
			<point x="190" y="699"/>
			<point x="116" y="625"/>
			<point x="116" y="523" type="curve"/>
			<point x="116" y="448"/>
			<point x="174" y="393"/>
		</contour>
		<contour>
			<point x="259" y="485" type="curve"/>
			<point x="259" y="485" type="line"/>
			<point x="231" y="485"/>
			<point x="210" y="505"/>
			<point x="210" y="532" type="curve"/>
			<point x="210" y="575"/>
			<point x="242" y="607"/>
			<point x="285" y="607" type="curve"/>
			<point x="313" y="607"/>
			<point x="334" y="587"/>
			<point x="334" y="560" type="curve"/>
			<point x="334" y="517"/>
			<point x="302" y="485"/>
		</contour>
	</outline>
</glyph>
<glyph name="Thorn" format="2">
	<advance width="678"/>
	<unicode hex="00DE"/>
	<outline>
		<contour>
			<point x="155" y="687" type="line"/>
			<point x="12" y="0" type="line"/>
			<point x="206" y="0" type="line"/>
			<point x="228" y="105" type="line"/>
			<point x="370" y="105" type="line" smooth="yes"/>
			<point x="542" y="105"/>
			<point x="679" y="222"/>
			<point x="679" y="385" type="curve"/>
			<point x="679" y="504"/>
			<point x="591" y="585"/>
			<point x="457" y="585" type="curve"/>
			<point x="323" y="585" type="line"/>
			<point x="344" y="687" type="line"/>
		</contour>
		<contour>
			<point x="378" y="281" type="curve"/>
			<point x="265" y="281" type="line"/>
			<point x="292" y="409" type="line"/>
			<point x="417" y="409" type="line" smooth="yes"/>
			<point x="458" y="409"/>
			<point x="480" y="394"/>
			<point x="480" y="369" type="curve"/>
			<point x="480" y="327"/>
			<point x="430" y="281"/>
		</contour>
	</outline>
</glyph>
<glyph name="divide" format="2">
	<advance width="595"/>
	<unicode hex="00F7"/>
	<outline>
		<contour>
			<point x="79" y="409" type="line"/>
			<point x="48" y="260" type="line"/>
			<point x="547" y="260" type="line"/>
			<point x="578" y="409" type="line"/>
		</contour>
		<contour>
			<point x="264" y="30" type="curve"/>
			<point x="264" y="30" type="line"/>
			<point x="318" y="30"/>
			<point x="368" y="79"/>
			<point x="368" y="137" type="curve"/>
			<point x="368" y="186"/>
			<point x="331" y="226"/>
			<point x="280" y="226" type="curve"/>
			<point x="225" y="226"/>
			<point x="174" y="184"/>
			<point x="174" y="121" type="curve"/>
			<point x="174" y="70"/>
			<point x="210" y="30"/>
		</contour>
		<contour>
			<point x="350" y="442" type="curve"/>
			<point x="350" y="442" type="line"/>
			<point x="404" y="442"/>
			<point x="453" y="490"/>
			<point x="453" y="548" type="curve"/>
			<point x="453" y="597"/>
			<point x="418" y="638"/>
			<point x="366" y="638" type="curve"/>
			<point x="312" y="638"/>
			<point x="259" y="596"/>
			<point x="259" y="534" type="curve"/>
			<point x="259" y="482"/>
			<point x="296" y="442"/>
		</contour>
	</outline>
</glyph>
<glyph name="Lslash" format="2">
	<advance width="635"/>
	<unicode hex="0141"/>
	<anchor x="283" y="687" name="top"/>
	<outline>
		<contour>
			<point x="37" y="345" type="line"/>
			<point x="5" y="178" type="line"/>
			<point x="408" y="358" type="line"/>
			<point x="441" y="525" type="line"/>
		</contour>
		<contour>
			<point x="190" y="687" type="line"/>
			<point x="47" y="0" type="line"/>
			<point x="561" y="0" type="line"/>
			<point x="597" y="173" type="line"/>
			<point x="223" y="173" type="line"/>
			<point x="268" y="117" type="line"/>
			<point x="384" y="687" type="line"/>
		</contour>
	</outline>
</glyph>
<glyph name="OE" format="2">
	<advance width="1044"/>
	<unicode hex="0152"/>
	<outline>
		<contour>
			<point x="37" y="291" type="curve"/>
			<point x="37" y="291" type="line"/>
			<point x="37" y="124"/>
			<point x="171" y="0"/>
			<point x="350" y="0" type="curve"/>
			<point x="937" y="0" type="line"/>
			<point x="973" y="173" type="line"/>
			<point x="615" y="173" type="line"/>
			<point x="633" y="264" type="line"/>
			<point x="960" y="264" type="line"/>
			<point x="996" y="437" type="line"/>
			<point x="670" y="437" type="line"/>
			<point x="685" y="514" type="line"/>
			<point x="1044" y="514" type="line"/>
			<point x="1080" y="687" type="line"/>
			<point x="480" y="687" type="line" smooth="yes"/>
			<point x="254" y="687"/>
			<point x="37" y="510"/>
		</contour>
		<contour>
			<point x="235" y="297" type="curve"/>
			<point x="235" y="297" type="line"/>
			<point x="235" y="406"/>
			<point x="346" y="511"/>
			<point x="456" y="511" type="curve"/>
			<point x="490" y="511" type="line"/>
			<point x="421" y="176" type="line"/>
			<point x="374" y="176" type="line" smooth="yes"/>
			<point x="292" y="176"/>
			<point x="235" y="224"/>
		</contour>
	</outline>
</glyph>
<glyph name="jdotless" format="2">
	<advance width="319"/>
	<unicode hex="0237"/>
	<anchor x="214" y="517" name="top"/>
	<outline>
		<contour>
			<point x="-6" y="-178" type="curve"/>
			<point x="-6" y="-178" type="line"/>
			<point x="96" y="-178"/>
			<point x="180" y="-110"/>
			<point x="202" y="-2" type="curve"/>
			<point x="310" y="517" type="line"/>
			<point x="117" y="517" type="line"/>
			<point x="17" y="38" type="line" smooth="yes"/>
			<point x="11" y="7"/>
			<point x="-20" y="-23"/>
			<point x="-52" y="-23" type="curve"/>
			<point x="-62" y="-23"/>
			<point x="-80" y="-23"/>
			<point x="-91" y="-18" type="curve"/>
			<point x="-126" y="-151" type="line"/>
			<point x="-100" y="-165"/>
			<point x="-53" y="-178"/>
		</contour>
	</outline>
</glyph>
<glyph name="commaaccentcomb" format="2">
	<advance width="0"/>
	<unicode hex="0326"/>
	<guideline x="32" y="-23" angle="78.5"/>
	<anchor x="-175" y="0" name="_bottom"/>
	<anchor x="-70" y="517" name="_top"/>
	<outline>
		<contour>
			<point x="-274" y="-260" type="curve"/>
			<point x="-226" y="-306" type="line"/>
			<point x="-160" y="-259"/>
			<point x="-103" y="-193"/>
			<point x="-103" y="-117" type="curve"/>
			<point x="-103" y="-62"/>
			<point x="-133" y="-23"/>
			<point x="-180" y="-23" type="curve"/>
			<point x="-226" y="-23"/>
			<point x="-268" y="-65"/>
			<point x="-268" y="-115" type="curve"/>
			<point x="-268" y="-156"/>
			<point x="-249" y="-188"/>
			<point x="-201" y="-188" type="curve"/>
			<point x="-218" y="-212"/>
			<point x="-244" y="-240"/>
		</contour>
	</outline>
</glyph>
<glyph name="endash" format="2">
	<advance width="574"/>
	<unicode hex="2013"/>
	<outline>
		<contour>
			<point x="62" y="356" type="line"/>
			<point x="29" y="200" type="line"/>
			<point x="520" y="200" type="line"/>
			<point x="553" y="356" type="line"/>
		</contour>
	</outline>
</glyph>
<glyph name="emdash" format="2">
	<advance width="879"/>
	<unicode hex="2014"/>
	<outline>
		<contour>
			<point x="62" y="356" type="line"/>
			<point x="29" y="200" type="line"/>
			<point x="825" y="200" type="line"/>
			<point x="858" y="356" type="line"/>
		</contour>
	</outline>
</glyph>
